<svg width="208" height="48" viewBox="0 0 208 48" fill="none" xmlns="http://www.w3.org/2000/svg">
<path d="M4.00004 22.9812C4.00004 22.5296 4.1507 22.1345 4.47085 21.8147C4.791 21.5136 5.18648 21.3631 5.60079 21.3631H9.4426C9.87574 21.3631 10.2336 21.5136 10.5349 21.8335C10.8174 22.1533 10.968 22.5296 10.968 22.9812C10.968 23.4327 10.8362 23.809 10.5537 24.1289C10.2712 24.4487 9.89457 24.5992 9.46143 24.5992H5.61962C5.18648 24.5992 4.80983 24.4487 4.48968 24.1289C4.33367 23.9813 4.2097 23.8033 4.12547 23.6059C4.04124 23.4084 3.99854 23.1958 4.00004 22.9812ZM9.3861 36.0198C9.3861 35.587 9.53676 35.2107 9.81924 34.8721L12.5876 32.1816C12.8701 31.8805 13.2467 31.7488 13.6987 31.7488C14.1507 31.7488 14.5273 31.8993 14.8287 32.1816C15.13 32.4638 15.2806 32.8213 15.2806 33.254C15.2806 33.7056 15.13 34.1195 14.8287 34.4581L12.1545 37.1298C11.3823 37.7319 10.6102 37.7319 9.83807 37.1298C9.69129 36.9851 9.57553 36.8121 9.49783 36.6212C9.42012 36.4304 9.38211 36.2257 9.3861 36.0198ZM9.3861 9.98024C9.3861 9.54751 9.53676 9.17121 9.81924 8.83255C10.1959 8.5127 10.5914 8.36218 11.0245 8.36218C11.4388 8.36218 11.8155 8.5127 12.1356 8.81374L14.8287 11.5795C15.13 11.8617 15.2806 12.238 15.2806 12.6896C15.2806 13.1411 15.13 13.5174 14.8287 13.8184C14.5273 14.1195 14.1507 14.27 13.6987 14.27C13.2467 14.27 12.8701 14.1195 12.5876 13.8184L9.83807 11.1279C9.68932 10.9769 9.57261 10.7973 9.49495 10.6001C9.41728 10.4029 9.38026 10.1921 9.3861 9.98024ZM14.1884 22.9812C14.1884 21.2314 14.6215 19.5945 15.5066 18.0894C16.3917 16.5842 17.5782 15.3801 19.1036 14.4958C20.629 13.6115 22.2486 13.1787 24 13.1787C25.3183 13.1787 26.5801 13.4421 27.8042 13.969C29.0094 14.4958 30.064 15.1919 30.9303 16.0762C31.8155 16.9605 32.5123 17.9953 33.0207 19.1994C33.5292 20.4036 33.7929 21.683 33.7929 23C33.7929 24.7686 33.3597 26.4055 32.4746 27.9106C31.5895 29.4158 30.403 30.6011 28.8964 31.4854C27.3898 32.3697 25.7514 32.8024 23.9812 32.8024C22.2109 32.8024 20.5725 32.3697 19.0659 31.4854C17.5593 30.6011 16.3729 29.4158 15.4878 27.9106C14.6403 26.3866 14.1884 24.7498 14.1884 22.9812ZM22.3993 37.619C22.3993 37.1674 22.5499 36.7912 22.8701 36.4901C23.1902 36.1891 23.5669 36.0386 24 36.0386C24.452 36.0386 24.8475 36.1891 25.1488 36.4901C25.4501 36.7912 25.6008 37.1674 25.6008 37.619V41.3631C25.6008 41.8147 25.4501 42.2098 25.13 42.5296C24.8098 42.8495 24.4332 43 24 43C23.5669 43 23.1714 42.8495 22.8701 42.5296C22.7163 42.3774 22.5952 42.1954 22.5143 41.9949C22.4333 41.7943 22.3942 41.5793 22.3993 41.3631V37.619ZM22.3993 8.45626V4.61806C22.3993 4.18532 22.5499 3.80903 22.8701 3.48918C23.1902 3.16933 23.5669 3 24.0189 3C24.4708 3 24.8286 3.15052 25.1488 3.47037C25.4689 3.79022 25.6196 4.16651 25.6196 4.59925V8.45626C25.6196 8.88899 25.4689 9.24647 25.1488 9.54751C24.8286 9.84854 24.452 9.98024 24.0189 9.98024C23.5857 9.98024 23.1902 9.82973 22.8889 9.54751C22.5876 9.26529 22.3993 8.88899 22.3993 8.45626ZM22.6064 16.5842C24.2448 16.7912 25.6196 17.5061 26.7307 18.7479C27.8418 19.9897 28.4068 21.4572 28.4068 23.1317C28.4068 24.6933 27.9172 26.0668 26.9379 27.2709C25.9586 28.4563 24.7156 29.2277 23.2091 29.5475C23.5857 29.5851 23.8682 29.6228 24.0377 29.6228C25.8644 29.6228 27.4463 28.9643 28.7458 27.666C30.0452 26.3678 30.7043 24.8062 30.7043 22.9624C30.7043 21.1562 30.0452 19.6134 28.7458 18.3151C27.4463 17.0357 25.8833 16.396 24.0377 16.396C23.5292 16.4337 23.0584 16.4901 22.6064 16.5842ZM32.7947 33.254C32.7947 32.8213 32.9454 32.4638 33.2279 32.2004C33.5104 31.8993 33.8682 31.7676 34.2825 31.7676C34.7345 31.7676 35.1111 31.9182 35.4124 32.2004L38.162 34.8909C38.4633 35.2107 38.6139 35.6058 38.6139 36.0386C38.6139 36.4713 38.4633 36.8476 38.162 37.1486C37.4087 37.7319 36.6554 37.7319 35.9021 37.1486L33.2279 34.477C32.9391 34.1357 32.785 33.7008 32.7947 33.254ZM32.7947 12.7084C32.7947 12.238 32.9454 11.8617 33.2279 11.5983L35.9021 8.83255C36.1987 8.54214 36.5978 8.37995 37.0132 8.381C37.4652 8.381 37.8418 8.53152 38.1431 8.85136C38.4633 9.17121 38.6139 9.54751 38.6139 9.98024C38.6139 10.4506 38.4633 10.8457 38.162 11.1468L35.4124 13.8373C35.0735 14.1383 34.6968 14.2888 34.2825 14.2888C33.8494 14.2888 33.5104 14.1383 33.2279 13.8373C32.9454 13.5362 32.7947 13.1599 32.7947 12.7084ZM37.0509 22.9812C37.0509 22.5296 37.2015 22.1533 37.5028 21.8147C37.8041 21.5136 38.162 21.3631 38.5763 21.3631H42.3804C42.8136 21.3631 43.1902 21.5325 43.5104 21.8523C43.8305 22.1722 44 22.5484 44 22.9812C44 23.4139 43.8305 23.7902 43.5104 24.1101C43.1902 24.4299 42.8136 24.5804 42.3804 24.5804H38.5763C38.1431 24.5804 37.7665 24.4299 37.484 24.1101C37.2015 23.7902 37.0509 23.4327 37.0509 22.9812Z" fill="#FFD84D"/>
<path d="M61.952 28.008V27.176C61.952 26.8133 62.1333 26.632 62.496 26.632H64.544C64.9067 26.632 65.088 26.8133 65.088 27.176V27.752C65.088 28.648 65.28 29.2987 65.664 29.704C66.0693 30.088 66.7307 30.28 67.648 30.28H69.856C70.7733 30.28 71.4347 30.0773 71.84 29.672C72.2453 29.2453 72.448 28.5627 72.448 27.624V26.888C72.448 26.2053 72.1813 25.672 71.648 25.288C71.136 24.8827 70.496 24.6267 69.728 24.52C68.96 24.392 68.1173 24.2213 67.2 24.008C66.2827 23.7947 65.44 23.5493 64.672 23.272C63.904 22.9947 63.2533 22.472 62.72 21.704C62.208 20.936 61.952 19.9547 61.952 18.76V17.416C61.952 15.8587 62.3893 14.6427 63.264 13.768C64.16 12.872 65.3867 12.424 66.944 12.424H70.336C71.9147 12.424 73.1413 12.872 74.016 13.768C74.912 14.6427 75.36 15.8587 75.36 17.416V18.12C75.36 18.4827 75.1787 18.664 74.816 18.664H72.768C72.4053 18.664 72.224 18.4827 72.224 18.12V17.704C72.224 16.7867 72.0213 16.136 71.616 15.752C71.232 15.3467 70.5813 15.144 69.664 15.144H67.648C66.7307 15.144 66.0693 15.3573 65.664 15.784C65.28 16.1893 65.088 16.8933 65.088 17.896V18.888C65.088 19.848 65.7813 20.4987 67.168 20.84C67.7867 20.9893 68.4587 21.1173 69.184 21.224C69.9307 21.3307 70.6773 21.4907 71.424 21.704C72.1707 21.9173 72.8533 22.2053 73.472 22.568C74.0907 22.9093 74.592 23.4427 74.976 24.168C75.36 24.872 75.552 25.736 75.552 26.76V28.008C75.552 29.5653 75.104 30.792 74.208 31.688C73.3333 32.5627 72.1173 33 70.56 33H66.976C65.4187 33 64.192 32.5627 63.296 31.688C62.4 30.792 61.952 29.5653 61.952 28.008ZM85.5953 33H84.1553C82.6193 33 81.4353 32.5733 80.6033 31.72C79.7926 30.8453 79.3873 29.6187 79.3873 28.04V17.224C79.3873 16.8613 79.5686 16.68 79.9313 16.68H81.9473C82.3099 16.68 82.4913 16.8613 82.4913 17.224V27.912C82.4913 29.4907 83.2593 30.28 84.7953 30.28H86.3313C88.0806 30.28 88.9553 29.3733 88.9553 27.56V17.224C88.9553 16.8613 89.1366 16.68 89.4993 16.68H91.5153C91.8993 16.68 92.0913 16.8613 92.0913 17.224V32.456C92.0913 32.8187 91.8993 33 91.5153 33H89.4993C89.1366 33 88.9553 32.8187 88.9553 32.456V31.304H88.8273C88.3153 32.4347 87.2379 33 85.5953 33ZM98.6385 33H96.6225C96.2598 33 96.0785 32.8187 96.0785 32.456V17.224C96.0785 16.8613 96.2598 16.68 96.6225 16.68H98.6385C99.0012 16.68 99.1825 16.8613 99.1825 17.224V18.376H99.3105C99.8225 17.2453 100.9 16.68 102.543 16.68H103.951C105.508 16.68 106.703 17.1067 107.535 17.96C108.367 18.8133 108.783 20.04 108.783 21.64V32.456C108.783 32.8187 108.591 33 108.207 33H106.191C105.828 33 105.647 32.8187 105.647 32.456V21.768C105.647 20.1893 104.868 19.4 103.311 19.4H101.807C100.057 19.4 99.1825 20.3067 99.1825 22.12V32.456C99.1825 32.8187 99.0012 33 98.6385 33ZM131.339 33H121.099C120.736 33 120.555 32.8187 120.555 32.456V12.968C120.555 12.6053 120.736 12.424 121.099 12.424H131.339C131.68 12.424 131.851 12.6053 131.851 12.968V14.6C131.851 14.9627 131.68 15.144 131.339 15.144H124.043C123.787 15.144 123.659 15.2507 123.659 15.464V20.872C123.659 21.0853 123.787 21.192 124.043 21.192H130.219C130.603 21.192 130.795 21.3733 130.795 21.736V23.368C130.795 23.7307 130.603 23.912 130.219 23.912H124.043C123.787 23.912 123.659 24.0187 123.659 24.232V29.928C123.659 30.1627 123.787 30.28 124.043 30.28H131.339C131.68 30.28 131.851 30.4613 131.851 30.824V32.456C131.851 32.8187 131.68 33 131.339 33ZM138.17 33H136.154C135.791 33 135.61 32.8187 135.61 32.456V17.224C135.61 16.8613 135.791 16.68 136.154 16.68H138.17C138.532 16.68 138.714 16.8613 138.714 17.224V18.376H138.842C139.354 17.2453 140.431 16.68 142.074 16.68H143.482C145.039 16.68 146.234 17.1067 147.066 17.96C147.898 18.8133 148.314 20.04 148.314 21.64V32.456C148.314 32.8187 148.122 33 147.738 33H145.722C145.359 33 145.178 32.8187 145.178 32.456V21.768C145.178 20.1893 144.399 19.4 142.842 19.4H141.338C139.588 19.4 138.714 20.3067 138.714 22.12V32.456C138.714 32.8187 138.532 33 138.17 33ZM163.693 33H156.781C155.202 33 153.976 32.5627 153.101 31.688C152.248 30.8133 151.821 29.5973 151.821 28.04V21.64C151.821 20.0613 152.248 18.8453 153.101 17.992C153.976 17.1173 155.202 16.68 156.781 16.68H159.405C160.984 16.68 162.21 17.1173 163.085 17.992C163.96 18.8453 164.397 20.0613 164.397 21.64V25.704C164.397 26.088 164.205 26.28 163.821 26.28H155.245C155.01 26.28 154.893 26.3867 154.893 26.6V27.976C154.893 29.5333 155.672 30.312 157.229 30.312H163.693C164.077 30.312 164.269 30.504 164.269 30.888V32.488C164.269 32.8293 164.077 33 163.693 33ZM155.245 24.104H160.973C161.186 24.104 161.293 23.9973 161.293 23.784V21.736C161.293 20.9253 161.112 20.3387 160.749 19.976C160.386 19.592 159.8 19.4 158.989 19.4H157.229C156.418 19.4 155.832 19.592 155.469 19.976C155.106 20.3387 154.925 20.9253 154.925 21.736V23.784C154.925 23.9973 155.032 24.104 155.245 24.104ZM170.482 33H168.466C168.104 33 167.922 32.8187 167.922 32.456V17.224C167.922 16.8613 168.104 16.68 168.466 16.68H170.482C170.845 16.68 171.026 16.8613 171.026 17.224V18.44H171.154C171.368 17.9067 171.773 17.48 172.37 17.16C172.989 16.84 173.672 16.68 174.418 16.68H175.602C175.965 16.68 176.146 16.8613 176.146 17.224V18.888C176.146 19.2933 175.965 19.464 175.602 19.4H173.682C171.912 19.4 171.026 20.3707 171.026 22.312V32.456C171.026 32.8187 170.845 33 170.482 33ZM184.593 32.2H183.153C181.617 32.2 180.433 31.7733 179.601 30.92C178.79 30.0453 178.385 28.8187 178.385 27.24V21.64C178.385 20.0613 178.822 18.8453 179.697 17.992C180.572 17.1173 181.788 16.68 183.345 16.68H190.513C190.897 16.68 191.089 16.8613 191.089 17.224V33.064C191.089 34.6213 190.641 35.8267 189.745 36.68C188.87 37.5547 187.654 37.992 186.097 37.992H180.081C179.718 37.992 179.537 37.8213 179.537 37.48V35.816C179.537 35.4533 179.718 35.272 180.081 35.272H185.617C187.174 35.272 187.953 34.4827 187.953 32.904V30.472H187.825C187.292 31.624 186.214 32.2 184.593 32.2ZM187.953 26.76V19.72C187.953 19.5067 187.836 19.4 187.601 19.4H183.793C182.278 19.4 181.521 20.1893 181.521 21.768V27.08C181.521 28.6587 182.278 29.448 183.793 29.448H185.329C187.078 29.448 187.953 28.552 187.953 26.76ZM196.999 38.184H195.303C194.94 38.184 194.759 38.0027 194.759 37.64V36.008C194.759 35.624 194.94 35.432 195.303 35.432H196.039C197.34 35.432 198.236 35.176 198.727 34.664C199.239 34.152 199.665 33.3093 200.007 32.136H198.727C198.407 32.136 198.183 31.9547 198.055 31.592L193.799 17.224C193.713 16.8613 193.852 16.68 194.215 16.68H196.359C196.7 16.68 196.913 16.8613 196.999 17.224L200.487 29.768H200.615L204.103 17.224C204.167 16.8613 204.38 16.68 204.743 16.68H206.791C207.196 16.68 207.367 16.872 207.303 17.256L202.919 32.648C202.428 34.44 201.735 35.8053 200.839 36.744C199.943 37.704 198.663 38.184 196.999 38.184Z" fill="white"/>
</svg>
