<svg width="26" height="26" viewBox="0 0 26 26" fill="none" xmlns="http://www.w3.org/2000/svg">
<path fill-rule="evenodd" clip-rule="evenodd" d="M12.9998 2.16699C7.01675 2.16699 2.1665 7.01724 2.1665 13.0003C2.1665 18.9834 7.01675 23.8337 12.9998 23.8337C18.9829 23.8337 23.8332 18.9834 23.8332 13.0003C23.8332 7.01724 18.9829 2.16699 12.9998 2.16699ZM0.916504 13.0003C0.916504 6.32689 6.3264 0.916992 12.9998 0.916992C19.6733 0.916992 25.0832 6.32689 25.0832 13.0003C25.0832 19.6738 19.6733 25.0837 12.9998 25.0837C6.3264 25.0837 0.916504 19.6738 0.916504 13.0003Z" fill="white"/>
<path fill-rule="evenodd" clip-rule="evenodd" d="M0.916626 13C0.916626 12.6548 1.19645 12.375 1.54163 12.375H24.4583C24.8035 12.375 25.0833 12.6548 25.0833 13C25.0833 13.3452 24.8035 13.625 24.4583 13.625H1.54163C1.19645 13.625 0.916626 13.3452 0.916626 13Z" fill="white"/>
<path fill-rule="evenodd" clip-rule="evenodd" d="M9.04177 13C9.12513 16.8587 10.5259 20.5655 13 23.5101C15.474 20.5655 16.8748 16.8587 16.9582 13C16.8748 9.14122 15.474 5.4344 13 2.48984C10.5259 5.4344 9.12513 9.14122 9.04177 13ZM13 1.54163L12.5385 1.12012C9.57027 4.36967 7.88343 8.58677 7.79176 12.9869C7.79158 12.9956 7.79158 13.0043 7.79176 13.013C7.88343 17.4132 9.57027 21.6303 12.5385 24.8798C12.6569 25.0094 12.8244 25.0833 13 25.0833C13.1755 25.0833 13.343 25.0094 13.4614 24.8798C16.4297 21.6303 18.1165 17.4132 18.2082 13.013C18.2083 13.0043 18.2083 12.9956 18.2082 12.9869C18.1165 8.58677 16.4297 4.36967 13.4614 1.12012L13 1.54163Z" fill="white"/>
</svg>
