<svg width="24" height="30" viewBox="0 0 24 30" fill="none" xmlns="http://www.w3.org/2000/svg">
<path fill-rule="evenodd" clip-rule="evenodd" d="M12 29.6673C12 29.6673 24 21.6673 24 12.334C24 9.15139 22.7357 6.09914 20.4853 3.8487C18.2348 1.59827 15.1826 0.333984 12 0.333984C8.8174 0.333984 5.76515 1.59827 3.51472 3.8487C1.26428 6.09914 0 9.15139 0 12.334C0 21.6673 12 29.6673 12 29.6673ZM16 12.334C16 14.5431 14.2091 16.334 12 16.334C9.79086 16.334 8 14.5431 8 12.334C8 10.1248 9.79086 8.33398 12 8.33398C14.2091 8.33398 16 10.1248 16 12.334Z" fill="#0052B4"/>
</svg>
