<svg width="28" height="28" viewBox="0 0 28 28" fill="none" xmlns="http://www.w3.org/2000/svg">
<path d="M27.3334 20.5595V24.5595C27.3349 24.9308 27.2589 25.2984 27.1101 25.6386C26.9613 25.9788 26.7431 26.2843 26.4695 26.5353C26.1959 26.7863 25.8728 26.9775 25.5211 27.0964C25.1693 27.2154 24.7966 27.2596 24.4267 27.2261C20.3239 26.7803 16.3827 25.3783 12.9201 23.1328C9.69851 21.0857 6.96719 18.3544 4.92007 15.1328C2.66671 11.6544 1.2644 7.69414 0.82674 3.57281C0.793421 3.2041 0.83724 2.83249 0.955407 2.48164C1.07357 2.1308 1.2635 1.8084 1.51309 1.53497C1.76269 1.26155 2.06648 1.04309 2.40513 0.893508C2.74378 0.743924 3.10986 0.666494 3.48007 0.666145H7.48007C8.12715 0.659776 8.75446 0.888916 9.24509 1.31086C9.73572 1.73279 10.0562 2.31874 10.1467 2.95948C10.3156 4.23957 10.6287 5.49645 11.0801 6.70615C11.2595 7.18338 11.2983 7.70203 11.1919 8.20065C11.0856 8.69927 10.8386 9.15696 10.4801 9.51948L8.78674 11.2128C10.6848 14.5509 13.4487 17.3147 16.7867 19.2128L18.4801 17.5195C18.8426 17.161 19.3003 16.9139 19.7989 16.8076C20.2975 16.7013 20.8162 16.7401 21.2934 16.9195C22.5031 17.3709 23.76 17.684 25.0401 17.8528C25.6878 17.9442 26.2793 18.2704 26.7021 18.7695C27.125 19.2685 27.3496 19.9056 27.3334 20.5595Z" fill="#0052B4"/>
</svg>
