<svg width="48" height="48" viewBox="0 0 48 48" fill="none" xmlns="http://www.w3.org/2000/svg">
<path d="M40 13.5H29.6667V3L40 13.5ZM29.6667 16.125H40V41.0625C40 43.2371 38.2651 45 36.125 45H12.875C10.7349 45 9 43.2363 9 41.0625V6.9375C9 4.76285 10.7349 3 12.875 3H27.0833L27.0837 13.5C27.0833 14.952 28.2378 16.125 29.6667 16.125ZM14.1667 10.2188C14.1667 10.578 14.4597 10.875 14.8125 10.875H21.2708C21.626 10.875 21.9167 10.578 21.9167 10.2188V8.90625C21.9167 8.54777 21.626 8.25 21.2708 8.25H14.8125C14.4597 8.25 14.1667 8.54777 14.1667 8.90625V10.2188ZM14.8125 16.125H21.2708C21.626 16.125 21.9167 15.8297 21.9167 15.4688V14.1562C21.9167 13.7953 21.626 13.5 21.2708 13.5H14.8125C14.4597 13.5 14.1667 13.7953 14.1667 14.1562V15.4688C14.1667 15.8297 14.4597 16.125 14.8125 16.125ZM24.944 28.9875L24.4273 28.8563C22.5867 28.282 22.6271 27.9457 22.6917 27.6504C22.8027 27.0096 24.031 26.8531 25.1353 27.0249C25.5869 27.0941 26.0823 27.2556 26.5554 27.4223C27.3941 27.7171 28.3177 27.2633 28.6099 26.41C28.9026 25.5536 28.4573 24.6184 27.6145 24.3207C27.0317 24.1169 26.5562 23.9861 26.1162 23.8881V23.3438C26.1162 22.4389 25.3934 21.7031 24.5016 21.7031C23.6098 21.7031 22.887 22.4389 22.887 23.3438V23.8353C21.0771 24.2297 19.8016 25.3781 19.5109 27.0926C18.9131 30.6068 22.1903 31.5838 23.5894 32.0013L24.0586 32.1398C26.4223 32.8268 26.3836 33.0577 26.3125 33.4753C26.2015 34.1161 24.9732 34.2751 23.8656 34.1008C23.3055 34.0162 22.5893 33.7547 21.9556 33.524L21.5948 33.3907C20.7544 33.0959 19.8325 33.5393 19.5346 34.3931C19.2382 35.2471 19.6784 36.1847 20.5195 36.4874L20.8639 36.6104C21.4902 36.8392 22.1862 37.069 22.8869 37.2266V37.7812C22.8869 38.6861 23.6097 39.4219 24.5015 39.4219C25.3933 39.4219 26.1161 38.6861 26.1161 37.7812V37.2682C27.9212 36.875 29.2008 35.7482 29.493 34.0337C30.0945 30.4805 26.7443 29.5043 24.944 28.9875Z" fill="#202636"/>
</svg>
