<svg width="48" height="48" viewBox="0 0 48 48" fill="none" xmlns="http://www.w3.org/2000/svg">
<path d="M18.3537 44.184L18.3536 44.1839L18.3458 44.1916C17.912 44.6192 17.2339 44.5956 16.8205 44.1611L16.8177 44.1582C16.6282 43.9621 16.5088 43.6962 16.4878 43.4082C16.4667 43.1201 16.5459 42.8363 16.7064 42.6097L16.7085 42.6066L26.462 28.614L26.9469 27.9183L26.1035 27.8307L9.91428 26.1499L9.91173 26.1497C9.6178 26.1207 9.33536 26.0025 9.09916 25.806L8.77933 26.1903L9.09916 25.806C8.86268 25.6092 8.68242 25.3418 8.58376 25.0341C8.48506 24.7263 8.47326 24.3942 8.55011 24.079C8.6267 23.765 8.78724 23.4842 9.00892 23.2689L29.6327 3.81597L29.6328 3.81605L29.6406 3.80837C30.0744 3.38085 30.7525 3.40436 31.1659 3.83888L31.5282 3.49426L31.1659 3.83888C31.5643 4.25771 31.6182 4.91627 31.281 5.3889L31.281 5.38888L31.2779 5.39338L21.5244 19.386L21.0395 20.0817L21.8829 20.1693L38.0721 21.8501L38.0721 21.8501L38.0772 21.8506C39.4047 21.9746 40.0186 23.7343 38.9787 24.7299C38.9783 24.7303 38.9779 24.7307 38.9775 24.731L18.3537 44.184Z" fill="#0052B4" stroke="#0052B4"/>
</svg>
