<svg width="49" height="48" viewBox="0 0 49 48" fill="none" xmlns="http://www.w3.org/2000/svg">
<path d="M3.5 6C3.5 5.20435 3.81607 4.44129 4.37868 3.87868C4.94129 3.31607 5.70435 3 6.5 3H12.5C13.2956 3 14.0587 3.31607 14.6213 3.87868C15.1839 4.44129 15.5 5.20435 15.5 6V12C15.5 12.7956 15.1839 13.5587 14.6213 14.1213C14.0587 14.6839 13.2956 15 12.5 15H6.5C5.70435 15 4.94129 14.6839 4.37868 14.1213C3.81607 13.5587 3.5 12.7956 3.5 12V6ZM18.5 6C18.5 5.20435 18.8161 4.44129 19.3787 3.87868C19.9413 3.31607 20.7044 3 21.5 3H27.5C28.2956 3 29.0587 3.31607 29.6213 3.87868C30.1839 4.44129 30.5 5.20435 30.5 6V12C30.5 12.7956 30.1839 13.5587 29.6213 14.1213C29.0587 14.6839 28.2956 15 27.5 15H21.5C20.7044 15 19.9413 14.6839 19.3787 14.1213C18.8161 13.5587 18.5 12.7956 18.5 12V6ZM33.5 6C33.5 5.20435 33.8161 4.44129 34.3787 3.87868C34.9413 3.31607 35.7043 3 36.5 3H42.5C43.2957 3 44.0587 3.31607 44.6213 3.87868C45.1839 4.44129 45.5 5.20435 45.5 6V12C45.5 12.7956 45.1839 13.5587 44.6213 14.1213C44.0587 14.6839 43.2957 15 42.5 15H36.5C35.7043 15 34.9413 14.6839 34.3787 14.1213C33.8161 13.5587 33.5 12.7956 33.5 12V6ZM3.5 21C3.5 20.2044 3.81607 19.4413 4.37868 18.8787C4.94129 18.3161 5.70435 18 6.5 18H12.5C13.2956 18 14.0587 18.3161 14.6213 18.8787C15.1839 19.4413 15.5 20.2044 15.5 21V27C15.5 27.7956 15.1839 28.5587 14.6213 29.1213C14.0587 29.6839 13.2956 30 12.5 30H6.5C5.70435 30 4.94129 29.6839 4.37868 29.1213C3.81607 28.5587 3.5 27.7956 3.5 27V21ZM18.5 21C18.5 20.2044 18.8161 19.4413 19.3787 18.8787C19.9413 18.3161 20.7044 18 21.5 18H27.5C28.2956 18 29.0587 18.3161 29.6213 18.8787C30.1839 19.4413 30.5 20.2044 30.5 21V27C30.5 27.7956 30.1839 28.5587 29.6213 29.1213C29.0587 29.6839 28.2956 30 27.5 30H21.5C20.7044 30 19.9413 29.6839 19.3787 29.1213C18.8161 28.5587 18.5 27.7956 18.5 27V21ZM33.5 21C33.5 20.2044 33.8161 19.4413 34.3787 18.8787C34.9413 18.3161 35.7043 18 36.5 18H42.5C43.2957 18 44.0587 18.3161 44.6213 18.8787C45.1839 19.4413 45.5 20.2044 45.5 21V27C45.5 27.7956 45.1839 28.5587 44.6213 29.1213C44.0587 29.6839 43.2957 30 42.5 30H36.5C35.7043 30 34.9413 29.6839 34.3787 29.1213C33.8161 28.5587 33.5 27.7956 33.5 27V21ZM3.5 36C3.5 35.2043 3.81607 34.4413 4.37868 33.8787C4.94129 33.3161 5.70435 33 6.5 33H12.5C13.2956 33 14.0587 33.3161 14.6213 33.8787C15.1839 34.4413 15.5 35.2043 15.5 36V42C15.5 42.7957 15.1839 43.5587 14.6213 44.1213C14.0587 44.6839 13.2956 45 12.5 45H6.5C5.70435 45 4.94129 44.6839 4.37868 44.1213C3.81607 43.5587 3.5 42.7957 3.5 42V36ZM18.5 36C18.5 35.2043 18.8161 34.4413 19.3787 33.8787C19.9413 33.3161 20.7044 33 21.5 33H27.5C28.2956 33 29.0587 33.3161 29.6213 33.8787C30.1839 34.4413 30.5 35.2043 30.5 36V42C30.5 42.7957 30.1839 43.5587 29.6213 44.1213C29.0587 44.6839 28.2956 45 27.5 45H21.5C20.7044 45 19.9413 44.6839 19.3787 44.1213C18.8161 43.5587 18.5 42.7957 18.5 42V36ZM33.5 36C33.5 35.2043 33.8161 34.4413 34.3787 33.8787C34.9413 33.3161 35.7043 33 36.5 33H42.5C43.2957 33 44.0587 33.3161 44.6213 33.8787C45.1839 34.4413 45.5 35.2043 45.5 36V42C45.5 42.7957 45.1839 43.5587 44.6213 44.1213C44.0587 44.6839 43.2957 45 42.5 45H36.5C35.7043 45 34.9413 44.6839 34.3787 44.1213C33.8161 43.5587 33.5 42.7957 33.5 42V36Z" fill="white"/>
</svg>
